<mxfile host="app.diagrams.net" agent="Mozilla/5.0 (Windows NT 10.0; Win64; x64) AppleWebKit/537.36 (KHTML, like Gecko) Chrome/130.0.0.0 Safari/537.36" version="24.8.3">
  <diagram id="C5RBs43oDa-KdzZeNtuy" name="Page-1">
    <mxGraphModel dx="714" dy="840" grid="1" gridSize="10" guides="1" tooltips="1" connect="1" arrows="1" fold="1" page="1" pageScale="1" pageWidth="827" pageHeight="1169" math="0" shadow="0">
      <root>
        <mxCell id="WIyWlLk6GJQsqaUBKTNV-0" />
        <mxCell id="WIyWlLk6GJQsqaUBKTNV-1" parent="WIyWlLk6GJQsqaUBKTNV-0" />
        <mxCell id="nbcGYtecfe7EUmkN0M0o-0" value="Cliente" style="swimlane;fontStyle=1;align=center;verticalAlign=top;childLayout=stackLayout;horizontal=1;startSize=26;horizontalStack=0;resizeParent=1;resizeParentMax=0;resizeLast=0;collapsible=1;marginBottom=0;whiteSpace=wrap;html=1;rounded=0;" vertex="1" parent="WIyWlLk6GJQsqaUBKTNV-1">
          <mxGeometry x="80" y="200" width="240" height="170" as="geometry" />
        </mxCell>
        <mxCell id="nbcGYtecfe7EUmkN0M0o-1" value="- Nombre String&lt;div&gt;- Apellido String&lt;/div&gt;&lt;div&gt;- Tipo_doc String&lt;/div&gt;&lt;div&gt;- Num_doc String&lt;/div&gt;&lt;div&gt;- Fecha_nac Date&lt;/div&gt;&lt;div&gt;- Fecha_alta DateTime&lt;/div&gt;" style="text;strokeColor=none;fillColor=none;align=left;verticalAlign=top;spacingLeft=4;spacingRight=4;overflow=hidden;rotatable=0;points=[[0,0.5],[1,0.5]];portConstraint=eastwest;whiteSpace=wrap;html=1;rounded=0;" vertex="1" parent="nbcGYtecfe7EUmkN0M0o-0">
          <mxGeometry y="26" width="240" height="104" as="geometry" />
        </mxCell>
        <mxCell id="nbcGYtecfe7EUmkN0M0o-2" value="" style="line;strokeWidth=1;fillColor=none;align=left;verticalAlign=middle;spacingTop=-1;spacingLeft=3;spacingRight=3;rotatable=0;labelPosition=right;points=[];portConstraint=eastwest;strokeColor=inherit;rounded=0;" vertex="1" parent="nbcGYtecfe7EUmkN0M0o-0">
          <mxGeometry y="130" width="240" height="8" as="geometry" />
        </mxCell>
        <mxCell id="nbcGYtecfe7EUmkN0M0o-3" value="Cliente(Nombre String,,Apellido String)" style="text;strokeColor=none;fillColor=none;align=left;verticalAlign=top;spacingLeft=4;spacingRight=4;overflow=hidden;rotatable=0;points=[[0,0.5],[1,0.5]];portConstraint=eastwest;whiteSpace=wrap;html=1;rounded=0;" vertex="1" parent="nbcGYtecfe7EUmkN0M0o-0">
          <mxGeometry y="138" width="240" height="32" as="geometry" />
        </mxCell>
        <mxCell id="nbcGYtecfe7EUmkN0M0o-4" value="Automovil" style="swimlane;fontStyle=1;align=center;verticalAlign=top;childLayout=stackLayout;horizontal=1;startSize=26;horizontalStack=0;resizeParent=1;resizeParentMax=0;resizeLast=0;collapsible=1;marginBottom=0;whiteSpace=wrap;html=1;rounded=0;" vertex="1" parent="WIyWlLk6GJQsqaUBKTNV-1">
          <mxGeometry x="80" y="530" width="240" height="240" as="geometry" />
        </mxCell>
        <mxCell id="nbcGYtecfe7EUmkN0M0o-5" value="- Marca String&lt;div&gt;- Modelo String&lt;/div&gt;&lt;div&gt;- Color String&lt;/div&gt;&lt;div&gt;- AÃ±o Integer&lt;/div&gt;&lt;div&gt;- Version String&lt;/div&gt;&lt;div&gt;- Velocidad_max Decimal&lt;/div&gt;&lt;div&gt;- Velocidad Decimal&lt;/div&gt;&lt;div&gt;&lt;br&gt;&lt;/div&gt;" style="text;strokeColor=none;fillColor=none;align=left;verticalAlign=top;spacingLeft=4;spacingRight=4;overflow=hidden;rotatable=0;points=[[0,0.5],[1,0.5]];portConstraint=eastwest;whiteSpace=wrap;html=1;rounded=0;" vertex="1" parent="nbcGYtecfe7EUmkN0M0o-4">
          <mxGeometry y="26" width="240" height="124" as="geometry" />
        </mxCell>
        <mxCell id="nbcGYtecfe7EUmkN0M0o-6" value="" style="line;strokeWidth=1;fillColor=none;align=left;verticalAlign=middle;spacingTop=-1;spacingLeft=3;spacingRight=3;rotatable=0;labelPosition=right;points=[];portConstraint=eastwest;strokeColor=inherit;rounded=0;" vertex="1" parent="nbcGYtecfe7EUmkN0M0o-4">
          <mxGeometry y="150" width="240" height="8" as="geometry" />
        </mxCell>
        <mxCell id="nbcGYtecfe7EUmkN0M0o-7" value="Automovil(Marca_a String, Modelo String, velociadad_max Decimal)" style="text;strokeColor=none;fillColor=none;align=left;verticalAlign=top;spacingLeft=4;spacingRight=4;overflow=hidden;rotatable=0;points=[[0,0.5],[1,0.5]];portConstraint=eastwest;whiteSpace=wrap;html=1;rounded=0;" vertex="1" parent="nbcGYtecfe7EUmkN0M0o-4">
          <mxGeometry y="158" width="240" height="82" as="geometry" />
        </mxCell>
        <mxCell id="nbcGYtecfe7EUmkN0M0o-8" value="Articulo" style="swimlane;fontStyle=1;align=center;verticalAlign=top;childLayout=stackLayout;horizontal=1;startSize=30;horizontalStack=0;resizeParent=1;resizeParentMax=0;resizeLast=0;collapsible=1;marginBottom=0;whiteSpace=wrap;html=1;rounded=0;" vertex="1" parent="WIyWlLk6GJQsqaUBKTNV-1">
          <mxGeometry x="360" y="200" width="240" height="170" as="geometry" />
        </mxCell>
        <mxCell id="nbcGYtecfe7EUmkN0M0o-9" value="Nombre String&lt;div&gt;Codigo String&lt;/div&gt;&lt;div&gt;Categoria String&lt;/div&gt;&lt;div&gt;Stock Integer&lt;/div&gt;&lt;div&gt;Disponible Bool&lt;/div&gt;&lt;div&gt;Precio Decimal&lt;/div&gt;" style="text;strokeColor=none;fillColor=none;align=left;verticalAlign=top;spacingLeft=4;spacingRight=4;overflow=hidden;rotatable=0;points=[[0,0.5],[1,0.5]];portConstraint=eastwest;whiteSpace=wrap;html=1;rounded=0;" vertex="1" parent="nbcGYtecfe7EUmkN0M0o-8">
          <mxGeometry y="30" width="240" height="100" as="geometry" />
        </mxCell>
        <mxCell id="nbcGYtecfe7EUmkN0M0o-10" value="" style="line;strokeWidth=1;fillColor=none;align=left;verticalAlign=middle;spacingTop=-1;spacingLeft=3;spacingRight=3;rotatable=0;labelPosition=right;points=[];portConstraint=eastwest;strokeColor=inherit;rounded=0;" vertex="1" parent="nbcGYtecfe7EUmkN0M0o-8">
          <mxGeometry y="130" width="240" height="8" as="geometry" />
        </mxCell>
        <mxCell id="nbcGYtecfe7EUmkN0M0o-11" value="Articulo(Nombre_art String, Codigo String)" style="text;strokeColor=none;fillColor=none;align=left;verticalAlign=top;spacingLeft=4;spacingRight=4;overflow=hidden;rotatable=0;points=[[0,0.5],[1,0.5]];portConstraint=eastwest;whiteSpace=wrap;html=1;rounded=0;" vertex="1" parent="nbcGYtecfe7EUmkN0M0o-8">
          <mxGeometry y="138" width="240" height="32" as="geometry" />
        </mxCell>
        <mxCell id="nbcGYtecfe7EUmkN0M0o-12" value="&lt;div&gt;Factura&lt;/div&gt;" style="swimlane;fontStyle=1;align=center;verticalAlign=top;childLayout=stackLayout;horizontal=1;startSize=26;horizontalStack=0;resizeParent=1;resizeParentMax=0;resizeLast=0;collapsible=1;marginBottom=0;whiteSpace=wrap;html=1;rounded=0;" vertex="1" parent="WIyWlLk6GJQsqaUBKTNV-1">
          <mxGeometry x="360" y="530" width="240" height="170" as="geometry" />
        </mxCell>
        <mxCell id="nbcGYtecfe7EUmkN0M0o-13" value="Letra Char&lt;div&gt;Numero1 Integer&lt;/div&gt;&lt;div&gt;Numero2 Integer&lt;/div&gt;" style="text;strokeColor=none;fillColor=none;align=left;verticalAlign=top;spacingLeft=4;spacingRight=4;overflow=hidden;rotatable=0;points=[[0,0.5],[1,0.5]];portConstraint=eastwest;whiteSpace=wrap;html=1;rounded=0;" vertex="1" parent="nbcGYtecfe7EUmkN0M0o-12">
          <mxGeometry y="26" width="240" height="94" as="geometry" />
        </mxCell>
        <mxCell id="nbcGYtecfe7EUmkN0M0o-14" value="" style="line;strokeWidth=1;fillColor=none;align=left;verticalAlign=middle;spacingTop=-1;spacingLeft=3;spacingRight=3;rotatable=0;labelPosition=right;points=[];portConstraint=eastwest;strokeColor=inherit;rounded=0;" vertex="1" parent="nbcGYtecfe7EUmkN0M0o-12">
          <mxGeometry y="120" width="240" height="8" as="geometry" />
        </mxCell>
        <mxCell id="nbcGYtecfe7EUmkN0M0o-15" value="Factura(Letra Char, Numero1 Integer, Numero2 Integer)" style="text;strokeColor=none;fillColor=none;align=left;verticalAlign=top;spacingLeft=4;spacingRight=4;overflow=hidden;rotatable=0;points=[[0,0.5],[1,0.5]];portConstraint=eastwest;whiteSpace=wrap;html=1;rounded=0;" vertex="1" parent="nbcGYtecfe7EUmkN0M0o-12">
          <mxGeometry y="128" width="240" height="42" as="geometry" />
        </mxCell>
        <mxCell id="nbcGYtecfe7EUmkN0M0o-16" value="- Constructor&lt;div&gt;- Visivilidad&lt;/div&gt;&lt;div&gt;- Encapsulamiento&lt;/div&gt;" style="text;html=1;align=center;verticalAlign=middle;resizable=0;points=[];autosize=1;strokeColor=none;fillColor=none;" vertex="1" parent="WIyWlLk6GJQsqaUBKTNV-1">
          <mxGeometry x="85" y="45" width="120" height="60" as="geometry" />
        </mxCell>
        <mxCell id="nbcGYtecfe7EUmkN0M0o-17" value="Diagrama de clases" style="whiteSpace=wrap;html=1;" vertex="1" parent="WIyWlLk6GJQsqaUBKTNV-1">
          <mxGeometry x="25" y="20" width="240" height="30" as="geometry" />
        </mxCell>
      </root>
    </mxGraphModel>
  </diagram>
</mxfile>
